<svg xmlns="http://www.w3.org/2000/svg" version="1.1" xmlns:xlink="http://www.w3.org/1999/xlink" xmlns:svgjs="http://svgjs.dev/svgjs" viewBox="0 0 800 800"><defs><linearGradient x1="50%" y1="0%" x2="50%" y2="100%" id="uundulate-grad"><stop stop-color="hsl(37, 99%, 67%)" stop-opacity="1" offset="45%"></stop><stop stop-color="hsl(316, 73%, 52%)" stop-opacity="1" offset="100%"></stop></linearGradient></defs><g stroke-width="2" stroke="url(#uundulate-grad)" fill="none"><path d="M673.9712858138433 435.7829255030915C680.6459011510534 504.4683729306096 654.4691874482854 578.9214590198884 606.2788293749359 628.3171123406045C558.0884713015864 677.7127656613206 541.9554607039888 662.4037240412991 442.6575670617648 672.882061442529C343.35967341954074 683.3603988437587 162.14465129965157 733.8421460672228 129.6489398922604 678.6131318665069C97.1532284848692 623.3841176657912 244.1697427831316 528.6872853281193 286.67815230628753 407.7827932790939C329.18656182944346 286.8783012300685 273.7804465513174 121.01236765422146 333.68930560340937 98.27157003118487C393.59816465550125 75.53077240814821 503.34859654582124 228.3120989652051 574.2406757563283 298.6269646885189C645.1327549668351 368.9418304118328 667.2966704766333 367.09747807557346 673.9712858138433 435.7829255030915C680.6459011510534 504.4683729306096 654.4691874482854 578.9214590198884 606.2788293749359 628.3171123406045 "></path><path d="M661.5180455495777 434.1563775642968C667.8892692805509 499.71975919965485 642.902406200636 570.7886141030575 596.9025189488025 617.9390104546501C550.9026316969688 665.0894068062429 535.5029397628984 650.4762307144041 440.71858674077544 660.4782800519416C345.9342337186524 670.4803293894792 172.95625805875835 718.6674517391494 141.93762444261222 665.9488472748297C110.91899082646609 613.2302428105102 251.25293629298926 522.8378119427325 291.82914538327447 407.4289786232082C332.40535447355967 292.0201453036839 279.51769898080295 133.69357234492088 336.7034280759816 111.9864473411132C393.88915717116026 90.27932233730559 498.65093306646577 236.1160431417689 566.3206450401315 303.2347786049322C633.9903570137973 370.35351406809536 655.1468218186045 368.59299592893876 661.5180455495777 434.1563775642968C667.8892692805509 499.71975919965485 642.902406200636 570.7886141030575 596.9025189488025 617.9390104546501 "></path><path d="M649.064790026523 432.5299516958148C655.1326221512595 494.97126753901284 631.3356096941977 562.6558912565392 587.5261932638799 607.5610306390084C543.7167768335621 652.4661700214776 529.050403563019 638.5488594578217 438.77959116099714 648.074620731667C348.50877875897515 657.6003820055122 183.767849559076 703.4928794813886 154.22629373417493 653.2846847534652C124.68473790927385 603.0764900255417 258.33611454405786 516.9884606276582 296.98012320147234 407.075286037635C335.6241318588868 297.1621114476119 285.25493615149946 146.37489910593285 339.7175352897649 125.7014467213541C394.1801344280302 105.02799433677541 493.95325432832124 243.92010938864524 558.4005990651457 307.8427145916579C622.8479438019702 371.7653197946705 642.9969579017866 370.08863585261656 649.064790026523 432.5299516958148C655.1326221512595 494.97126753901284 631.3356096941977 562.6558912565392 587.5261932638799 607.5610306390084 "></path><path d="M636.6115650210465 430.90340375702C642.376005539546 490.22265380805834 619.7688437053373 554.5230463397083 578.1498980965355 597.1829287530541C536.5309524877337 639.8428111663998 522.5978978807177 626.6213661309266 436.84062609879686 635.6708393410796C351.083354316876 644.7203125512326 194.57947157697186 688.3181851533152 166.51499354331582 640.620400161788C138.4505155096598 592.9226151702607 265.4193233127046 511.13898724227124 302.1311315372483 406.7214713817493C338.8429397617921 302.3039555212274 290.9922038397741 159.05610379663233 342.7316730211262 139.4163240312825C394.4711422024784 119.77654426593273 489.25560610775483 251.7240535652091 550.480583607738 312.4505285080711C611.7055611077213 373.17700345093306 630.8471245025469 371.58415370598186 636.6115650210465 430.90340375702C642.376005539546 490.22265380805834 619.7688437053373 554.5230463397083 578.1498980965355 597.1829287530541 "></path><path d="M624.1583094979919 429.27694737095976C629.6193584102546 485.4741316298382 608.202047198899 546.3902929756118 568.773572411613 586.8049184198342C529.3450976243271 627.2195438640564 516.1453616808382 614.6939643567661 434.90163051901845 623.2671495032268C353.65789935719874 631.8403346496875 205.39106307728952 673.1435823779763 178.80366283487854 627.9562071228452C152.21626259246756 582.7688318677141 272.5025015637732 505.28960540961884 307.2821093554462 406.3677482785981C342.0617171471192 307.4458911475773 296.7294410104706 171.73740004006612 345.7457802349095 153.13129289394527C394.76211945934824 134.52518574782442 484.5579273696102 259.52808929450725 542.5605376327522 317.05843397721867C600.5631478958943 374.58877865993 618.697260585729 373.0797631120814 624.1583094979919 429.27694737095976C629.6193584102546 485.4741316298382 608.202047198899 546.3902929756118 568.773572411613 586.8049184198342 "></path><path d="M611.7050692337261 427.6504299497433C616.8627265397522 480.7255484164617 596.6352659512497 538.2574785763591 559.3972619854796 576.4268470514579C522.1592580197095 614.5962155265568 509.6928407397477 602.7665015474491 432.9626501980291 610.8633986302177C356.23245965631054 618.9602957129862 216.20266983639624 657.9689185674811 191.0923473852303 615.2919530487461C165.98202493406444 572.6149875300111 279.5856950736308 499.4401625418102 312.4331024324331 406.01396414029057C345.28050979123543 312.58776573877094 302.4666934399562 184.41863524834372 348.7599027074818 166.8462007214518C395.05311197500737 149.27376619455987 479.8602638902546 267.3320639886492 534.6405069165555 321.66627841121C589.4207499428563 376.00049283377075 606.5474119277003 374.57531148302485 611.7050692337261 427.6504299497433C616.8627265397522 480.7255484164617 596.6352659512497 538.2574785763591 559.3972619854796 576.4268470514579 "></path><path d="M599.2518442282496 426.02394304610493C604.1061099280389 475.97699572066347 585.0684999623894 530.1246946946844 550.0209668181352 566.0488062006598C514.9734336738809 601.9729177066353 503.2403350574464 590.8390692557105 431.02368513582894 598.4596782747867C358.8070352142114 606.080287293863 227.01429185429208 642.794285274564 203.3810471943712 602.6277294922252C179.74780253445033 562.4611737098865 286.66890384227753 493.5907501915797 317.5841107682091 405.66021051956113C348.4993176941407 317.72967084754265 308.20396112823084 197.0999009741994 351.77404043884314 180.56113906653644C395.34411974945544 164.02237715887344 475.1626156696882 275.1360692003693 526.7204914591478 326.27415336277943C578.2783672486074 377.41223752518954 594.3975785284606 376.0708903715464 599.2518442282496 426.02394304610493C604.1061099280389 475.97699572066347 585.0684999623894 530.1246946946844 550.0209668181352 566.0488062006598 "></path><path d="M586.798588705195 424.3974408836774C591.3494627987473 471.22842776607604 573.501703455951 521.9918955542207 540.6446411332126 555.6707500910727C507.7875788104743 589.3496046279246 496.78779885756694 578.9116217051826 429.08468955605053 586.0559426605665C361.38158025453413 593.2002636159506 237.82588335460974 627.6196367228578 215.66971648593392 589.9634906769152C193.51354961725815 552.3073446309727 293.75208209334613 487.74132258256 322.73508858640696 405.30644164004264C351.71809507946784 322.8715606975253 313.94119829892736 209.78115144126605 354.7881476526264 194.27606215283197C395.6350970063254 178.77097286439795 470.46493693154366 282.94005915330035 518.8004454841621 330.8820130555598C567.1359540367804 378.82396695781927 582.2477146116428 377.56645400127877 586.798588705195 424.3974408836774C591.3494627987473 471.22842776607604 573.501703455951 521.9918955542207 540.6446411332126 555.6707500910727 "></path><path d="M574.3453636997185 422.7709234624609C578.592846187034 466.47984455269966 561.9349374670908 513.859081154968 531.2683459658683 545.2926787226965C500.60175446464586 576.726276290425 490.33529317526563 566.9841588958657 427.14572449385037 573.6521917875575C363.956155812435 580.3202246792491 248.63750537250553 612.4449729123626 227.9584162950748 577.2992366028161C207.27932721764404 542.1535002932698 300.8352908619928 481.8918797147512 327.88609692218296 404.9526575017351C354.9369029823731 328.01343528871894 319.678465987202 222.4623866495436 357.80228538398774 207.9909699803385C395.92610478077347 193.5195533111334 465.76728871097725 290.7440338474423 510.8804300267543 335.4898574895511C555.9935713425315 380.23568113165993 570.0978812124031 379.0620023722222 574.3453636997185 422.7709234624609C578.592846187034 466.47984455269966 561.9349374670908 513.859081154968 531.2683459658683 545.2926787226965 "></path><path d="M561.8921081766639 421.14443655882246C565.8361990577425 461.7312918569013 550.3681409606523 505.7262972732933 521.8920202809458 534.9146378718983C493.4158996012393 564.1029784705033 483.8827569753862 555.056726604127 425.20672891407196 561.2484714321265C366.5307008527577 567.4402162601259 259.44909687282325 597.2703396194455 240.24708558663752 564.6350130462953C221.04507430045186 531.9996864731451 307.9184691130614 476.0424673645207 333.03707474038083 404.59890388100575C358.15568036770026 333.1553403974907 325.4157031578985 235.1436523753993 360.81639259777097 221.70590832542314C396.2170820376435 208.26816427544696 461.0696099728326 298.54803905916236 502.96038405176853 340.09773244112057C544.8511581307044 381.6474258230788 557.9480172955851 380.55758126074375 561.8921081766639 421.14443655882246C565.8361990577425 461.7312918569013 550.3681409606523 505.7262972732933 521.8920202809458 534.9146378718983 "></path><path d="M549.4388679123982 419.5179496551841C553.0795671872401 456.98273916110304 538.801359713003 497.5935133916188 512.5157098548124 524.5365970211003C486.23005999662166 551.4796806505819 477.43023603429583 543.1292943123883 423.2677485930826 548.8447510766955C369.1052611518695 554.5602078410027 270.26070363192997 582.0957063265284 252.53577013698936 551.9707894897745C234.81083664204868 521.8458726530203 315.00166262291907 470.19305501429017 338.18806781736777 404.2451502602763C361.37447301181646 338.29724550626247 331.1529555873841 247.82491810125504 363.83051507034327 235.42084667050779C396.50807455330255 223.01677523976053 456.371946493477 306.35204427088246 495.0403533355718 344.70560739269C533.7087601776665 383.0591705144976 545.7981686375564 382.05316014926524 549.4388679123982 419.5179496551841C553.0795671872401 456.98273916110304 538.801359713003 497.5935133916188 512.5157098548124 524.5365970211003 "></path><path d="M536.9856429069216 417.89143223396763C540.3229505755266 452.23415594772666 527.2345937241428 489.46069899236613 503.13941468746793 514.1585256527242C479.0442356507932 538.8563523130822 470.9777303519944 531.2018315030714 421.3287835308824 536.4410002036864C371.67983670977037 541.6801689043012 281.0723256498258 566.9210425160333 264.8244699461302 539.3065354156754C248.57661424243463 511.69202831531743 322.0848713915658 464.3436121464815 343.33907615314376 403.8913661219688C364.59328091472173 343.4391200974561 336.89022327565874 260.5061533095326 366.8446528017047 249.1357544980143C396.7990823277506 237.76535568649598 451.6742982729106 314.15601896502443 487.12033787816415 349.31345182668133C522.5663774834176 384.4708846883383 533.6483352383166 383.5487085202086 536.9856429069216 417.89143223396763C540.3229505755266 452.23415594772666 527.2345937241428 489.46069899236613 503.13941468746793 514.1585256527242 "></path><path d="M524.5324179014451 416.2649453303293C527.5663339638133 447.4856032519283 515.6678277352825 481.3279151106915 493.7631195201236 503.78048480192615C471.85841130496465 526.2330544931607 464.5252246696931 519.2743992113327 419.38981846868217 524.0372798482554C374.25441226767117 528.8001604851779 291.8839476677216 551.7464092231162 277.1131697552711 526.6423118591545C262.3423918428205 501.53821449519273 329.1680801602125 458.494199796251 348.49008448891976 403.5376125012394C367.812088817627 348.5810252062278 342.6274909639333 273.1874190353883 369.85879053306604 262.85069284309895C397.0900901021987 252.51396665080955 446.9766500523442 321.96002417674447 479.2003224207565 353.92132677825083C511.4239947891688 385.88262937975713 521.4985018390769 385.04428740873016 524.5324179014451 416.2649453303293C527.5663339638133 447.4856032519283 515.6678277352825 481.3279151106915 493.7631195201236 503.78048480192615 "></path><path d="M512.0791928959686 414.6384584266908C514.8097173520999 442.73705055613004 504.10106174642215 473.19513122901685 484.3868243527792 493.402443951128C464.6725869591362 513.6097566732392 458.0727189873917 507.346966919594 417.4508534064819 511.63355949282436C376.828987825572 515.9201520660547 302.6955696856174 536.571775930199 289.4018695644119 513.9780883026335C276.10816944320646 491.38440067506804 336.25128892885925 452.64478744602036 353.64109282469576 403.18385888051C371.03089672053227 353.7229303149996 348.36475865220797 285.868684761244 372.8729282644274 276.56563118818354C397.3810978766468 267.2625776151231 442.27900183177775 329.76402938846456 471.2803069633487 358.5292017298203C500.28161209491986 387.2943740711759 509.3486684398372 386.53986629725165 512.0791928959686 414.6384584266908C514.8097173520999 442.73705055613004 504.10106174642215 473.19513122901685 484.3868243527792 493.402443951128 "></path><path d="M499.62590685533576 413.01197152305247C502.0530397052304 437.98849786033173 492.5342347224057 465.0623473473422 475.0104681502785 483.0244031003299C457.4867015781514 500.9864588533176 451.6201522699341 495.4195346278552 415.5118273091254 499.22983913739336C379.40350234831664 503.0401436469315 313.507130668357 521.3971426372821 301.6905083383965 501.3138647461126C289.8738860084361 481.2305868549432 343.33443666234973 446.79537509578984 358.79204012531545 402.83010525978057C374.2496435882813 358.8648354237713 354.10196530532636 298.5499504870997 375.8870049606325 290.2805695332682C397.67204461593866 282.0111885794367 437.58129257605503 337.56803460018466 463.3602304707848 363.1370766813897C489.1391683655147 388.70611876259477 497.19877400544124 388.0354451857732 499.62590685533576 413.01197152305247C502.0530397052304 437.98849786033173 492.5342347224057 465.0623473473422 475.0104681502785 483.0244031003299 "></path><path d="M487.1726665910702 411.38548461941406C489.2964078347279 433.2399451645334 480.9674534747563 456.92956346566757 465.6341577241451 472.6463622495319C450.30086197353387 488.36316103339607 445.16763132884375 483.49210233611643 413.5728469881361 486.82611878196235C381.97806264742843 490.16013522780815 324.3187374274637 506.2225093443649 313.97919288874834 488.64964118959165C303.639648350033 471.0767730348185 350.41763017220734 440.9459627455592 363.94303320230244 402.47635163905113C377.4684362323975 364.00674053254306 359.83921773481194 311.2312162129554 378.9011274332048 303.99550787835284C397.9630371315977 296.7597995437503 432.88362909669956 345.37203981190476 455.4401997545881 367.74495163295916C477.99677041247674 390.11786345401356 485.0489253474125 389.5310240742947 487.1726665910702 411.38548461941406C489.2964078347279 433.2399451645334 480.9674534747563 456.92956346566757 465.6341577241451 472.6463622495319 "></path><path d="M474.7194263268046 409.7589824569866C476.5397759642255 428.49137720994605 469.40067222710695 448.7967643252039 456.25784729801165 462.2683061399447C443.1150223689163 475.7398479546855 438.7151103877534 471.5646547855887 411.6338666671468 474.4223831677423C384.5526229465402 477.2801115498959 335.1303441865705 491.04786079265875 326.2678774391001 475.98540237428176C317.4054106916298 460.92294395590466 357.500823682065 435.0965351365396 369.0940262792893 402.1225827595327C380.6872288765137 369.14863038252577 365.5764701642975 323.912466680022 381.9152499057771 317.7104309646484C398.25402964725674 311.5083952492748 428.185965617344 353.1760297648358 447.5201690383914 372.35281132573954C466.8543724594387 391.52959288664334 472.89907668938366 391.0265877040272 474.7194263268046 409.7589824569866C476.5397759642255 428.49137720994605 469.40067222710695 448.7967643252039 456.25784729801165 462.2683061399447 "></path><path d="M462.266201321328 408.1324650357701C463.78315935251214 423.7427939965696 457.8339062382467 440.6639499259512 446.8815521306673 451.89023477156854C435.9291980230878 463.1165196171858 432.262604705452 459.6371919762718 409.69490160494655 462.01863229473315C387.1271985044411 464.4000726131944 345.94196620446627 475.87319698216356 338.556577248241 463.3211483001827C331.17118829201576 450.76909961820184 364.58403245071173 429.24709226873097 374.2450346150653 401.7687986212252C383.90603677941897 374.2905049737194 371.31373785257216 336.5937018882996 384.92938763713846 331.42533879215495C398.5450374217048 326.2569756960103 423.4883173967776 360.9800044589777 439.6001535809837 376.9606557597309C455.71198976518986 392.94130706048406 460.7492432901439 392.52213607497055 462.266201321328 408.1324650357701C463.78315935251214 423.7427939965696 457.8339062382467 440.6639499259512 446.8815521306673 451.89023477156854 "></path><path d="M449.8129610570624 406.5059781321317C451.0265274820097 418.99424130077136 446.2671249905974 432.5311660442766 437.5052417045338 441.5121939207704C428.7433584184702 450.49322179726425 425.8100837643616 447.7097596845331 407.7559212839572 449.61491193930215C389.7017588035528 451.5200641940712 356.753572963573 460.6985636892465 350.8452617985928 450.65692474366176C344.9369506336126 440.6152857980771 371.6672259605694 423.3976799185004 379.39602769205226 401.41504500049575C387.1248294235352 379.4324100824911 377.05099028205774 349.27496761415534 387.94351010971076 345.1402771372396C398.83602993736383 341.00558666032384 418.79065391742205 368.7840096706978 431.68012286478694 381.56853071130035C444.5695918121519 394.35305175190285 448.59939463211515 394.01771496349204 449.8129610570624 406.5059781321317C451.0265274820097 418.99424130077136 446.2671249905974 432.5311660442766 437.5052417045338 441.5121939207704 "></path><path d="M437.3597207927968 404.8794912284933C438.2698956115073 414.245688604973 434.700343742948 424.39838216260193 428.1289312784004 431.13415306997234C421.5575188138527 437.86992397734275 419.3575628232712 435.78232739279434 405.8169409629679 437.21119158387114C392.2763191026646 438.64005577494794 367.5651797226798 445.5239303963294 363.1339463489446 437.9927011871409C358.70271297520947 430.4614719779523 378.75041947042706 417.5482675682698 384.5470207690392 401.0612913797663C390.3436220676514 384.5743151912629 382.78824271154326 361.956233340011 390.9576325822831 358.8552154823242C399.1270224530229 355.7541976246374 414.0929904380665 376.5880148824179 423.7600921485902 386.1764056628698C433.4271938591139 395.76479644332164 436.4495459740864 395.5132938520136 437.3597207927968 404.8794912284933C438.2698956115073 414.245688604973 434.700343742948 424.39838216260193 428.1289312784004 431.13415306997234 "></path><path d="M424.90646526974217 403.2529890660658C425.5132484822158 409.4971206503857 423.1335472365096 416.2655830221383 418.7526055934778 420.7560969603852C414.3716639504461 425.2466108986321 412.90502662339173 423.85487984226654 403.87794538318957 424.8074559696511C394.85086414298735 425.7600320970356 378.37677122299743 430.34928184462325 375.42261564050733 425.3284623718309C372.46846005801723 420.30764289903857 385.8335977214956 411.69883995925017 389.69799858723707 400.7075225002479C393.5623994529785 389.7162050412456 388.5254798822398 374.6374838070777 393.97173979606634 372.57013856861977C399.41799970989285 370.5027933301619 409.395311699922 384.3920048353489 415.84004617360443 390.7842653556502C422.2847806472869 397.1765258759514 424.2996820572685 397.008857481746 424.90646526974217 403.2529890660658C425.5132484822158 409.4971206503857 423.1335472365096 416.2655830221383 418.7526055934778 420.7560969603852 "></path><path d="M412.4532402642656 401.62650216242747C412.7566318705024 404.7485679545874 411.5667812476493 408.1327991404637 409.37631042613344 410.37805610958713C407.18583960461757 412.6233130787106 406.4525209410904 411.9274475505278 401.9389803209893 412.40373561422007C397.4254397008882 412.88002367791233 389.1883932408933 415.1746485517061 387.7113154496482 412.66423881531C386.2342376584032 410.1538290789138 392.91680649014233 405.84942760901964 394.84900692301306 400.3537688795185C396.7812073558838 394.8581101500173 394.2627475705144 387.31874953293334 396.9858775274277 386.2850769137044C399.709007484341 385.2514042944755 404.6976634793555 392.19601004706897 407.9200307161967 395.3921403072196C411.14239795303797 398.5882705673703 412.14984865802876 398.50443637026757 412.4532402642656 401.62650216242747C412.7566318705024 404.7485679545874 411.5667812476493 408.1327991404637 409.37631042613344 410.37805610958713 "></path></g></svg>