<svg xmlns="http://www.w3.org/2000/svg" width="22" height="20" viewBox="0 0 22 20" fill="none">
<path d="M21.5989 8.50021C21.55 7.66205 21.4952 6.80602 21.3166 5.98424C21.2287 5.57951 21.083 5.16851 20.8466 4.82897C20.4759 4.29629 19.9195 4.02245 19.2942 3.93116C18.3259 3.79012 17.3442 3.72559 16.3688 3.66366C15.8602 3.63133 15.3508 3.60685 14.8414 3.58293C14.6513 1.3105 13.264 0.400024 11.051 0.400024C8.85304 0.400024 7.46957 1.29821 7.26483 3.53709C6.39101 3.57157 5.51773 3.6235 4.64748 3.70977C3.50694 3.82298 2.20141 3.92545 1.43447 4.90994C0.933087 5.55365 0.76528 6.35947 0.651865 7.1545C0.502166 8.2047 0.44791 9.26747 0.430074 10.3277C0.396172 12.3559 0.429393 14.4587 0.809802 16.4569C0.966444 17.28 1.31717 18.0155 2.07135 18.4374C2.63298 18.7517 3.26533 18.86 3.89265 18.945C4.4681 19.0227 5.04596 19.0824 5.62447 19.1301C8.28621 19.35 10.9667 19.3711 13.6351 19.314C14.8364 19.2885 16.0381 19.2434 17.2374 19.165C17.702 19.1346 18.1663 19.0993 18.6298 19.0534C19.1757 18.9995 19.7478 18.9573 20.2164 18.6356C20.6913 18.3093 20.9471 17.8157 21.1597 17.2906C21.4237 16.6144 21.4717 15.8285 21.5354 15.1121C21.6319 14.0277 21.6667 12.9374 21.6754 11.849C21.6847 10.7325 21.6639 9.6148 21.5989 8.50021ZM12.1277 3.49344C11.4134 3.48139 10.6994 3.47841 9.98518 3.48302C9.62339 3.4853 9.45014 3.36822 9.58125 3.0841C9.82391 2.55807 10.3399 2.3867 11.051 2.3867C11.7739 2.3867 12.2958 2.56357 12.533 3.11073C12.6956 3.48613 12.4755 3.49939 12.1277 3.49344Z" fill="#68182B"/>
<path d="M19.7076 5.33893C20.217 5.01652 20.2967 5.28621 20.3922 5.47862C20.6952 6.08905 20.7448 6.8209 20.8058 7.48517C20.2141 7.38387 19.6185 7.30896 19.0215 7.24824C19.08 6.38574 19.218 5.64929 19.7076 5.33893Z" fill="#DDA96B"/>
<path d="M9.40884 1.33384C9.93112 1.16316 10.5048 1.13031 11.0509 1.13031C11.6074 1.13031 12.1492 1.20765 12.6928 1.33384C13.7391 1.57658 14.043 2.60418 14.1243 3.55052C13.8719 3.5408 13.6193 3.53456 13.3668 3.52684C13.2058 2.21551 12.3825 1.65648 11.0509 1.65648C9.729 1.65648 8.90811 2.20675 8.73806 3.49641C8.63091 3.49859 8.52372 3.49776 8.41657 3.50033C8.27123 3.50372 8.12606 3.50898 7.98071 3.51317C8.06969 2.53899 8.38464 1.66839 9.40884 1.33384Z" fill="#FF7A0D"/>
<path d="M3.62689 4.56327C4.74776 4.37599 5.90213 4.32596 7.03522 4.27646C9.59736 4.16422 12.1674 4.19316 14.729 4.30633C15.819 4.35449 16.9087 4.41871 17.9956 4.51796C18.4414 4.55853 18.9344 4.57016 19.3715 4.69036C18.1594 5.41532 18.2971 7.60389 18.2882 8.92997C18.2781 10.4459 17.5047 10.8427 16.2328 11.0581C15.2808 11.219 14.3074 11.329 13.3381 11.3749C12.8878 11.3959 12.765 11.39 12.6798 10.9725C12.6107 10.6362 12.4772 10.3215 12.2229 10.0835C11.6746 9.56973 10.7872 9.55149 10.1537 9.92146C9.71104 10.1795 9.52955 10.4883 9.42917 10.9561C9.35245 11.3122 9.2437 11.3968 8.77234 11.373C7.88616 11.3279 7.00131 11.2254 6.1247 11.0981C4.93803 10.9256 3.98589 10.7287 3.82554 9.29576C3.6935 8.11709 4.06101 5.58585 2.92847 4.73443C3.15608 4.6555 3.3938 4.60236 3.62689 4.56327Z" fill="#FFC522"/>
<path d="M11.6863 12.9803C11.3102 13.2249 10.6713 13.2877 10.3123 12.9803C9.84921 12.5842 10.0583 11.3797 10.1817 10.8751C10.3021 10.5559 10.7203 10.419 11.0254 10.4021C11.5375 10.3737 11.8775 10.6538 11.9755 11.1449C12.0816 11.6778 12.2078 12.6419 11.6863 12.9803Z" fill="#00EBED"/>
<path d="M1.59993 6.12747C1.87836 5.24036 2.3828 4.95853 2.76001 5.68487C2.96465 6.07908 3.05505 6.65773 3.09243 7.24691C2.50047 7.3067 1.90988 7.38065 1.323 7.48045C1.38015 7.02109 1.46259 6.56509 1.59993 6.12747Z" fill="#DDA96B"/>
<path d="M20.6681 16.3099C20.621 16.5761 20.5656 16.8446 20.4674 17.0964C20.2737 17.5745 20.0102 18.013 19.5026 18.1808C19.0899 18.3167 18.6304 18.3257 18.2002 18.3626C17.1518 18.4525 16.1001 18.5055 15.0485 18.5434C12.5028 18.6351 9.95013 18.6397 7.40538 18.5151C6.25367 18.4587 5.09999 18.3787 3.95665 18.2234C3.03749 18.0986 1.97646 17.865 1.6466 16.8592C1.43692 16.2199 1.37695 15.5176 1.31286 14.8511C1.2134 13.8178 1.16513 12.7792 1.14811 11.7414C1.13348 10.8284 1.1428 9.91367 1.194 9.00167C1.22204 8.50146 1.33362 8.21246 1.70936 8.15309C2.17633 8.07925 2.64554 8.02219 3.11622 7.97473C3.1202 8.52808 3.09842 9.02237 3.10758 9.29579C3.13617 10.1503 3.49435 10.8535 4.18215 11.3329C4.75869 11.7346 5.63302 11.7642 6.29744 11.8544C7.30088 11.9902 8.31181 12.1001 9.32458 12.1235C9.35051 12.7738 9.54875 13.3932 10.1023 13.7128C10.8132 14.1231 11.9296 13.9011 12.4472 13.2677C12.7014 12.9564 12.7431 12.5305 12.75 12.1282C14.3439 12.1113 16.5169 12.1125 17.9196 11.3329C18.8842 10.7969 18.9306 9.33772 18.985 7.97473C19.4231 8.01894 19.8598 8.07142 20.2947 8.13782C20.8389 8.22139 20.8946 8.62626 20.9204 9.29094C20.9361 9.69692 20.9462 10.1029 20.9525 10.5087C20.9824 12.4243 21.0039 14.4172 20.6681 16.3099Z" fill="#FF7A0D"/>
<path d="M18.1847 6.11425C17.764 7.41976 18.3402 9.05821 17.425 10.2004C16.9911 10.7424 16.1762 10.7726 15.552 10.8569C14.8914 10.9462 14.2255 11.0043 13.5591 11.0107C12.8943 11.0173 12.8425 10.0751 12.4092 9.74031C11.9991 9.42361 11.577 9.31311 11.0682 9.33461C10.6499 9.35219 10.2037 9.44563 9.84658 9.67052C9.4061 9.94802 9.29319 10.5598 8.8507 10.8503C8.30555 11.2084 7.29506 10.9246 6.71788 10.8194C6.22048 10.7287 5.72067 10.6843 5.23947 10.5176C4.38335 10.2206 4.1601 9.38138 4.0831 8.48966C4.07075 8.21271 4.05812 7.89179 4.03443 7.55793C4.02245 7.24784 4.00784 6.95209 3.96836 6.69449C3.8947 6.21416 3.71801 5.45673 3.29053 5.13339C3.97568 6.20616 3.71042 8.26654 3.82571 9.29576C3.98606 10.7287 4.9382 10.9256 6.12487 11.0981C7.00148 11.2254 7.88633 11.3279 8.77251 11.373C9.24387 11.3969 9.35262 11.3122 9.42934 10.9561C9.52972 10.4884 9.71121 10.1795 10.1538 9.92147C10.7874 9.55146 11.6748 9.56974 12.2231 10.0835C12.4773 10.3215 12.6108 10.6362 12.68 10.9725C12.7652 11.39 12.8879 11.3959 13.3383 11.3749C14.3076 11.329 15.2809 11.219 16.233 11.0581C17.5049 10.8427 18.2783 10.4459 18.2884 8.92998C18.296 7.79742 18.1996 6.0386 18.9256 5.09686C18.5743 5.33854 18.3021 5.74978 18.1847 6.11425Z" fill="#FFA222"/>
<path d="M15.8503 5.02456C12.8861 4.84634 9.87576 4.85998 6.91565 5.00074C6.61091 5.01521 6.31093 5.02629 6.04595 5.06579C5.78307 5.09827 5.54521 5.16356 5.40096 5.29473C5.22839 5.42725 5.12587 5.62402 5.13264 5.92545C5.14888 6.65325 5.87365 7.12576 6.79492 7.1018C7.42224 7.08557 8.03676 6.86408 8.63777 6.74654C9.47435 6.5829 10.3397 6.52491 11.2013 6.53544C12.5908 6.55275 13.9185 6.96966 15.3058 7.03606C16.8044 7.10748 17.1317 6.26337 16.9556 5.58477C16.8433 5.15234 16.4666 5.06147 15.8503 5.02456Z" fill="#FBE134"/>
<path d="M3.09232 7.24687C3.05495 6.65766 2.96454 6.07904 2.7599 5.68483C2.4569 5.10157 2.0721 5.1696 1.78809 5.67808C2.29811 5.72121 2.70075 6.20657 2.70857 6.77439C2.71109 6.96372 2.6534 7.14087 2.56551 7.30746C2.74118 7.28693 2.91641 7.26474 3.09232 7.24687Z" fill="#C48D51"/>
<path d="M19.4787 6.445C19.555 5.94804 19.9277 5.60023 20.3441 5.38005C20.2586 5.21319 20.133 5.06997 19.7078 5.33892C19.2182 5.64928 19.0802 6.38573 19.0217 7.24823C19.2826 7.27475 19.543 7.30556 19.8031 7.33841C19.5818 7.12374 19.4101 6.89235 19.4787 6.445Z" fill="#C48D51"/>
<path d="M11.677 1.48029C10.2153 1.31948 8.62064 1.82378 8.55005 3.49875C8.61281 3.49833 8.67544 3.49767 8.73818 3.49646C8.90823 2.20677 9.72912 1.65653 11.051 1.65653C12.3826 1.65653 13.2059 2.21556 13.3669 3.52689C13.4556 3.52959 13.5442 3.53257 13.6326 3.53513C13.6103 3.09468 13.4269 2.62801 13.2162 2.31779C12.8617 1.79563 12.2743 1.54599 11.677 1.48029Z" fill="#EF6200"/>
<path d="M20.9523 10.5086C20.9461 10.1028 20.936 9.69686 20.9203 9.29088C20.8945 8.62623 20.8388 8.22133 20.2946 8.13776C19.8597 8.07136 19.423 8.01888 18.9849 7.97467C18.9769 8.1702 18.9691 8.36739 18.9588 8.56389C19.0241 8.5616 19.0891 8.55928 19.1547 8.55765C19.408 8.55184 19.6589 8.57077 19.9021 8.64583C20.4177 8.80525 20.4647 9.3785 20.4791 9.83558C20.5375 11.7119 20.5341 13.662 20.2395 15.5181C20.1664 15.9791 20.0919 16.4667 19.8926 16.8907C19.5907 17.5336 18.9622 17.6542 18.3417 17.7537C17.3115 17.9187 16.2646 17.9801 15.2237 18.0222C12.8665 18.1171 10.4998 18.0538 8.14569 17.9101C6.54403 17.8125 4.81834 17.7786 3.26192 17.3402C1.71759 16.9053 1.69366 14.4822 1.63011 13.1939C1.58011 12.1789 1.61813 11.1572 1.6749 10.1435C1.70295 9.64074 1.73369 9.14213 2.07672 8.74847C2.34198 8.44379 2.73502 8.3947 3.11542 8.34115C3.11662 8.22323 3.11716 8.10058 3.11621 7.97467C2.64553 8.02213 2.17632 8.07922 1.70935 8.15303C1.3336 8.2124 1.22206 8.5014 1.19398 9.00161C1.14279 9.91361 1.13349 10.8283 1.1481 11.7414C1.16512 12.7792 1.21338 13.8177 1.31284 14.851C1.37693 15.5176 1.43691 16.2198 1.64658 16.8592C1.97645 17.8649 3.03748 18.0986 3.95664 18.2234C5.09997 18.3786 6.25366 18.4587 7.40536 18.5151C9.95011 18.6396 12.5028 18.635 15.0485 18.5433C16.1001 18.5055 17.1518 18.4525 18.2002 18.3625C18.6303 18.3256 19.0898 18.3167 19.5026 18.1808C20.0102 18.0129 20.2737 17.5744 20.4673 17.0964C20.5656 16.8446 20.621 16.576 20.6681 16.3098C21.0038 14.4172 20.9824 12.4243 20.9523 10.5086Z" fill="#EF6200"/>
<path d="M18.8618 9.59961C18.7436 10.3616 18.496 11.0125 17.9196 11.3328C16.5169 12.1125 14.3439 12.1112 12.75 12.1281C12.7432 12.5305 12.7015 12.9563 12.4472 13.2676C11.9296 13.901 10.8133 14.1231 10.1023 13.7128C9.54879 13.3931 9.35055 12.7737 9.32461 12.1234C8.31185 12.1 7.30095 11.9901 6.29748 11.8543C5.63306 11.7641 4.75872 11.7345 4.18219 11.3328C3.80791 11.072 3.53468 10.7427 3.35571 10.3609C3.48148 10.9389 3.77441 11.4428 4.40888 11.7942C5.39823 12.3422 6.71775 12.2804 7.81002 12.308C8.26048 12.3193 8.72694 12.3513 9.0019 12.7655C9.14642 12.9832 9.21344 13.2616 9.3323 13.496C9.59038 14.0053 10.2137 14.1835 10.734 14.2242C11.2936 14.2678 11.9287 14.2559 12.4044 13.9149C12.8877 13.5687 12.9193 12.8588 13.4217 12.5417C13.7719 12.3203 14.3599 12.4009 14.759 12.3775C15.1387 12.3555 15.5175 12.3213 15.8955 12.2795C16.4679 12.2162 17.0165 12.0903 17.5404 11.8431C18.4593 11.4093 18.8471 10.5511 18.8618 9.59961Z" fill="#FFB85A"/>
<path d="M10.9028 12.8975C10.3341 12.8186 10.2589 12.1099 10.2574 11.6583C10.2559 11.243 10.3345 10.8639 10.5212 10.5326C10.3694 10.6089 10.2403 10.7202 10.1817 10.8751C10.0584 11.3797 9.84919 12.5842 10.3123 12.9803C10.6713 13.2877 11.3102 13.2249 11.6863 12.9803C11.8959 12.8442 11.9997 12.6068 12.0434 12.3374C11.8133 12.721 11.4475 12.973 10.9028 12.8975Z" fill="#19BFBB"/>
<script xmlns=""/></svg>